<svg version="1.2" xmlns="http://www.w3.org/2000/svg" viewBox="0 0 309 268">
	<g>
		<path class="s0" d="m183.3 29.1v-29.5c0 0 96.1 5.9 93.2 118.3h-28.1c0 0 4.9-77.4-65.1-88.8z"/>
		<path class="s0" d="m276.5 129.7h31.5c0 0 2.5 133.6-145.4 137v-28.1c0 0 107.1 1 113.9-108.9z"/>
		<path class="s0" d="m223.7 129.7h22.2c0 0 3.5 72.9-76.4 78.4v-23.2c0 0 51.3 1 54.2-55.2z"/>
		<path class="s0" d="m162.6 231.7v-21.2c0 0-73.9 0-84.3-84.7h-24.1c0 0-3.5 103.4 108.4 105.9z"/>
		<path class="s0" d="m87.7 253.9v-26.1c0 0-63.1-13.8-60.6-90.2h-26.6c0 0-3.5 102 87.2 116.3z"/>
		<path class="s0" d="m47.3 120.3h-21.7c0 0 3-86.5 102.1-90.9 0 0 84.6-0.7 97.5 90.9h-24.1c0 0-2.7-62.2-72.3-70.6 0 0-72.1-4.3-81.5 70.6z"/>
		<path class="s0" d="m108.4 99.1v-29c0 0 62.1-5 70 69.9h-27.6c0 0-3.5-40.9-42.4-40.9z"/>
	</g>
</svg>