<svg version="1.2" xmlns="http://www.w3.org/2000/svg" viewBox="0 0 376 184" width="376" height="184">
	<title>LogotipoRadar-svg</title>
	<style>
		.s0 { fill: #000000 } 
	</style>
	<g id="Capa_2">
		<g>
			<path class="s0" d="m4.4 87.1c0 0-4.7-0.5-4.7-5.1v-67c0 0 0.9-8.9 6-3.8l10.9 10.5c0 0 2.4 2.5 2.6 8.7v50.7c0 0 0.2 5.9-5.9 6z"/>
			<path class="s0" d="m35.1 24.9c0 0-4.5 0.3-7.6-2.1l-12.1-12.5c0 0-4-5.8 3.8-5.8h65.4c0 0 7.4-1.1 7.4 5.8v10.8c0 0 0.4 2.1-2.9 7.2l-18.7 19.3c0 0-2.5 4.2 0.4 8.8l18.8 19c0 0 5.6 6.2 1 10.8-0.7 0.6-1.5 0.9-2.4 0.9h-12.2c0 0-3.1 0.6-7.4-3.8l-23.7-23.9c0 0-2.1-3.1-7.9-3.5 0 0-6.9 0.9-6.8-9.1 0 0-1.7-9.3 7.6-9.3l8.1 0.1c0 0 5.9 1.1 10.1-5 0 0 6.9-7.9-3.5-7.9z"/>
		</g>
		<path class="s0" d="m123.3 83.4c0 0-1.8 3.7-8 3.7h-10.7c0 0-9.9-0.8-5-11.3 0.4-1 1.1-2 1.8-2.7l68.6-69c0 0 2.9-3.8 5-3.8h14.8c0 0 4.7 0.6 5 4.8v77.1c0 0-0.8 5-4 5h-10.5c0 0-5.3-0.3-5.9-6.5 0 0 0-3.4-4.6-4.5l-14.4-0.2c0 0-3.2-0.1-4.2-3.3-0.7-2.1 0-4.5 1.6-6.1l10.1-9.8c0 0 1.3-1.5 6-1.5 0 0 5.7 0.8 5.7-6.8l-0.2-4.8c0 0-0.9-4.6-6.7-3-1 0.2-1.9 0.8-2.6 1.5z"/>
		<path class="s0" d="m283 70.5c0 0-4.5 2.5-5.4-2.8v-63.4c0 0-0.3-4 3.7-4h56.7c0 0 3.1-0.1 6.3 2.7l27.6 27.9c0 0 1.9 2 2.7 6.2v14.6c0 0 0.4 1.8-2.2 5.3l-29.1 28.5c0 0-1.2 1.6-4.6 1.6h-51.5c0 0-4 0-2.5-5.4l12.2-12c0 0 2.6-2.9 5.2-2.5l26.7 0.2c0 0 3.9 0.9 6.1-2.5l17.6-17.9c0 0 2.3-3.7 0-6.3l-17.2-17.3c0 0-1.9-2.6-4.7-2.2l-29-0.2c0 0-3.2-0.4-3.4 3.8v26.9c0 0 0.1 3.8-1.1 5.7z"/>
		<path class="s0" d="m71.2 176.8c0 0 1.8 3.8 8 3.8h10.7c0 0 9.9-0.9 5-11.4-0.4-1-1.1-1.9-1.9-2.7l-68.6-69c0 0-2.8-3.8-4.9-3.8h-14.9c0 0-4.6 0.6-4.9 4.8v77.2c0 0 0.8 4.9 4 4.9h10.5c0 0 5.3-0.3 5.8-6.5 0 0 0-3.4 4.7-4.5l14.3-0.2c0 0 3.2-0.1 4.3-3.3 0.7-2.1-0.1-4.5-1.7-6.1l-10.1-9.8c0 0-1.3-1.5-5.9-1.5 0 0-5.7 0.8-5.7-6.8l0.1-4.8c0 0 1-4.6 6.8-3 1 0.2 1.9 0.8 2.6 1.5z"/>
		<g>
			<path class="s0" d="m188.4 180.5c0 0 4.6-0.5 4.6-5.1v-67c0 0-0.8-9-6-3.8l-10.9 10.5c0 0-2.4 2.5-2.6 8.7v50.7c0 0-0.1 5.9 5.9 6z"/>
			<path class="s0" d="m157.7 118.3c0 0 4.5 0.3 7.6-2.1l12-12.5c0 0 4-5.8-3.8-5.8h-65.4c0 0-7.4-1.1-7.4 5.8v10.8c0 0-0.3 2.1 3 7.2l18.6 19.3c0 0 2.6 4.2-0.4 8.8l-18.8 19c0 0-5.5 6.2-0.9 10.8 0.6 0.6 1.4 0.9 2.3 0.9h12.3c0 0 3.1 0.6 7.4-3.8l23.6-23.9c0 0 2.1-3.2 8-3.5 0 0 6.8 0.9 6.7-9.1 0 0 1.7-9.4-7.6-9.4l-8.1 0.2c0 0-5.9 1.1-10-5 0 0-6.9-7.9 3.4-7.9z"/>
		</g>
		<path class="s0" d="m223.6 42h32.1v10.9h-32.1z"/>
	</g>
</svg>